<svg xmlns="http://www.w3.org/2000/svg" width="200mm" height="200mm" viewBox="0 0 200 200"><defs><filter id="prefix__f" x="-.204" width="1.408" y="-.128" height="1.257" color-interpolation-filters="sRGB"><feGaussianBlur stdDeviation="3.313"/></filter><filter id="prefix__d" x="-.165" width="1.33" y="-.135" height="1.27" color-interpolation-filters="sRGB"><feGaussianBlur stdDeviation="6.752"/></filter><filter id="prefix__a" x="-.082" width="1.163" y="-.056" height="1.112" color-interpolation-filters="sRGB"><feGaussianBlur stdDeviation="2.724"/></filter><filter id="prefix__b" x="-.115" width="1.229" y="-.106" height="1.213" color-interpolation-filters="sRGB"><feGaussianBlur stdDeviation="3.821"/></filter><filter id="prefix__c" x="-.098" width="1.196" y="-.06" height="1.119" color-interpolation-filters="sRGB"><feGaussianBlur stdDeviation="2.299"/></filter><filter id="prefix__e" x="-.136" width="1.272" y="-.111" height="1.223" color-interpolation-filters="sRGB"><feGaussianBlur stdDeviation="4.073"/></filter><clipPath clipPathUnits="userSpaceOnUse" id="prefix__g"><rect width="48.53" height="48.528" x="-157.29" y="75.081" transform="matrix(.68497 -.72857 .68542 .72815 0 0)" ry="24.264" fill="#f2f2f2" stroke="#00d455" stroke-width="0" stroke-dashoffset="24.131" stroke-opacity="0" paint-order="markers stroke fill"/></clipPath></defs><g paint-order="markers stroke fill"><path d="M99.766 20a80 80 0 0174.104 49.288 80 80 0 01-17.318 87.297 80 80 0 01-87.306 17.267A80 80 0 0120 99.72l80 .28z" fill="#2a53da"/><path d="M150.63 46.088a80 80 0 0126.183 57.803 80 80 0 01-24.144 58.684l-55.844-57.283z" opacity=".213" fill="#2b0022" filter="url(#prefix__a)" transform="translate(0 -5.292)"/><path d="M153.804 40.796a80 80 0 0126.184 57.803 80 80 0 01-24.144 58.685L100 100z" fill="#e9347c"/><g><path d="M164.392 62.42a80 80 0 011.723 86.225l-68.232-41.766z" opacity=".368" fill="#0b1728" filter="url(#prefix__b)" transform="translate(0 -5.292)"/><path d="M166.509 55.541c17.416 25.945 18.167 60.402 1.162 87.02L100 100z" fill="#2a7fff"/><g><g transform="translate(5.556)"><rect width="56.387" height="92.677" x="59.082" y="53.571" ry="0" opacity=".174" fill="#2d5016" filter="url(#prefix__c)"/><rect width="56.387" height="92.677" x="56.144" y="53.716" ry="0" fill="#00cc7c"/></g><path transform="matrix(.8417 0 0 .85823 -1.514 15.46)" d="M138.223 146.248a60 60 0 01-81.955-5.168 60 60 0 01-.039-82.118 60 60 0 0181.95-5.246L100 100z" opacity=".435" fill="#333" filter="url(#prefix__d)"/><path d="M118.115 146.248a60 60 0 01-81.955-5.168 60 60 0 01-.039-82.118 60 60 0 0181.95-5.246L79.89 100z" fill="#f5f5f5"/><g><path transform="matrix(.8425 0 0 .96012 13.94 3.466)" d="M106.259 134.397a43.919 43.919 0 01-59.99-3.783 43.919 43.919 0 01-.029-60.109 43.919 43.919 0 0159.986-3.84l-27.947 33.88z" opacity=".368" filter="url(#prefix__e)"/><path d="M107.846 133.868a43.919 43.919 0 01-59.99-3.784 43.919 43.919 0 01-.028-60.108 43.919 43.919 0 0159.986-3.84l-27.947 33.879z" fill="#0788ff"/></g></g></g><g><path transform="matrix(-.66327 .5325 -.5786 -.65819 -1.036 7.08)" d="M-27.542-210.215a34.688 33.636 0 0111.978 31.767 34.688 33.636 0 01-22.553 25.802 34.688 33.636 0 01-34.28-6.253l22.683-25.448z" opacity=".177" filter="url(#prefix__f)"/><path clip-path="url(#prefix__g)" transform="matrix(1.29091 0 0 1.17216 169.005 -99.071)" d="M-43.62 107.774c8.771 7.29 15.125 16.141 19.913 26.09 2.217 4.608 4.374 9.964 5.758 14.55 3.447 11.428 4.15 22.795 1.954 34.913-.66 3.64-1.56 7.102-2.76 10.502-2.697 7.64-6.692 14.744-11.347 21.3-9.376 13.204-22.123 23.966-37.908 29.565a80 80 0 01-79.059-14.872l52.313-60.525z" fill="#f5f5f5"/></g><path d="M180 99.882a80 80 0 01-39.952 69.372 80 80 0 01-80.054.025A80 80 0 0120 99.93" opacity=".171" fill="#005"/></g></svg>